# xmcd CD database file
#
# Track frame offsets:
#	150
#	23690
#	45135
#	65505
#	81030
#	101095
#	116115
#	132675
#	156905
#	181005
#	198470
#	220605
#	243285
#	263065
#	277265
#	296935
#
# Disc length: 4204 seconds
#
# Revision: 4
# Processed by: cddbd v1.5.2PL0 Copyright (c) Steve Scherf et al.
# Submitted via: CDex 1.51
#
DISCID=eb106a10
DTITLE=Various Artist - Dreams [CD3)
DYEAR=1997
DGENRE=Miscalleneous
TTITLE0=Scorpions - Wind Of Change
TTITLE1=Rainbow - Temple Of The King
TTITLE2=Europe - Carrie
TTITLE3=Kansas - Dust In The Wind
TTITLE4=Styx - Babe
TTITLE5=Eric Burdon And the Animals - San Franciscan Nights
TTITLE6=Lou Reed - Satelite of Love
TTITLE7=Procol Harum - A Whiter Shade of Pale [live]
TTITLE8=Heart - Dog and Butterfly
TTITLE9=Toto - I'll Be Over You
TTITLE10=R.E.O. Speedwagon - Can't Fight This Feeling
TTITLE11=Santana - Europa
TTITLE12=Dan Fogelberg - Rythm Of The Rain
TTITLE13=Slade - Everyday
TTITLE14=The Alan Parsons Project - Don't Let It Show
TTITLE15=Robin Beck - Save Up All Your Tears
EXTD=YEAR: 1997
EXTT0=
EXTT1=
EXTT2=
EXTT3=
EXTT4=
EXTT5=
EXTT6=
EXTT7=
EXTT8=
EXTT9=
EXTT10=
EXTT11=
EXTT12=
EXTT13=
EXTT14=
EXTT15=
PLAYORDER=
